<?xml version="1.0" encoding="UTF-8"?>
<svg version="1.1" xmlns="http://www.w3.org/2000/svg" width="1024" height="1024">
<path d="M0 0 C337.92 0 675.84 0 1024 0 C1024 337.92 1024 675.84 1024 1024 C686.08 1024 348.16 1024 0 1024 C0 686.08 0 348.16 0 0 Z " fill="#C6C6C6" transform="translate(0,0)"/>
<path d="M0 0 C1.33461021 -0.0146228 1.33461021 -0.0146228 2.69618225 -0.02954102 C22.59047985 -0.20264874 41.80794114 0.04802574 61.34765625 4.23828125 C62.68111084 4.51913574 62.68111084 4.51913574 64.04150391 4.80566406 C134.07181245 19.99485629 192.49312595 60.20005694 232.53515625 119.4765625 C241.83757576 134.10849319 250.20003481 150.01902467 256.34765625 166.23828125 C256.5811377 166.85251953 256.81461914 167.46675781 257.05517578 168.09960938 C260.82995551 178.21591859 263.54413304 188.5667388 266.09765625 199.05078125 C266.39148193 200.25420166 266.68530762 201.45762207 266.98803711 202.69750977 C271.07453838 219.93599631 272.5617315 236.88242412 272.53515625 254.55078125 C272.53424988 255.66820206 272.53424988 255.66820206 272.5333252 256.80819702 C272.49087724 276.18232356 270.96471349 294.94944558 266.84912109 313.91308594 C266.40392704 315.97736451 265.99246354 318.04885334 265.5859375 320.12109375 C257.06660971 359.26844388 234.26016614 398.85127811 206.71484375 427.75390625 C204.72843562 429.83865142 202.87346085 431.9624991 201.03515625 434.17578125 C192.0812932 444.4545596 181.4054906 453.31984382 170.34765625 461.23828125 C169.5280542 461.82657715 169.5280542 461.82657715 168.69189453 462.42675781 C136.83444757 485.01977471 98.9138069 501.635637 60.34765625 508.23828125 C59.22214355 508.43147949 58.09663086 508.62467773 56.93701172 508.82373047 C11.56820209 516.24683609 -35.44294731 513.75132036 -78.65234375 497.23828125 C-80.13531539 496.69113168 -81.61838252 496.14424081 -83.1015625 495.59765625 C-105.39462035 487.20378807 -127.05461175 475.87819327 -146.05371094 461.45166016 C-147.68358928 460.21456557 -149.32707827 458.99735816 -150.97265625 457.78125 C-158.64526558 452.0570068 -165.74198707 445.85617205 -172.65234375 439.23828125 C-173.15121094 438.76664551 -173.65007812 438.29500977 -174.1640625 437.80908203 C-181.61111037 430.74252279 -188.14709106 423.2498891 -194.30224609 415.03710938 C-195.63153752 413.26600282 -196.97874174 411.50973025 -198.328125 409.75390625 C-216.71952203 385.56366068 -230.86460813 358.36142456 -239.65234375 329.23828125 C-239.88888672 328.45727051 -240.12542969 327.67625977 -240.36914062 326.87158203 C-258.24668391 266.54106372 -250.37725644 196.30215961 -221.35302734 140.75146484 C-208.81957201 117.78510726 -193.79703743 97.05128777 -175.65234375 78.23828125 C-174.82476562 77.36945313 -173.9971875 76.500625 -173.14453125 75.60546875 C-167.68836091 69.99284908 -161.7771935 65.10118689 -155.65234375 60.23828125 C-154.64945312 59.40683594 -153.6465625 58.57539063 -152.61328125 57.71875 C-110.95516548 23.48824707 -54.23581906 0.49776761 0 0 Z " fill="#E8E9EA" transform="translate(519.65234375,243.76171875)"/>
<path d="M0 0 C3.24815222 2.60805514 5.65474067 4.96422201 7 9 C7.11734984 11.06966464 7.17681627 13.14278334 7.20532227 15.21557617 C7.2352401 17.13722847 7.2352401 17.13722847 7.26576233 19.09770203 C7.2827454 20.49612304 7.29962425 21.89454531 7.31640625 23.29296875 C7.33698166 24.7235829 7.35797829 26.15419105 7.37937927 27.58479309 C7.43453933 31.34780006 7.48397529 35.11086135 7.53222656 38.8739624 C7.58248593 42.71485216 7.63814883 46.55566316 7.69335938 50.39648438 C7.80086673 57.93092287 7.90232811 65.46542691 8 73 C9.68029297 73.07347656 9.68029297 73.07347656 11.39453125 73.1484375 C12.86721203 73.22347856 14.33986707 73.29902582 15.8125 73.375 C16.55048828 73.4059375 17.28847656 73.436875 18.04882812 73.46875 C21.81893115 73.67346148 23.79650741 73.86433827 27 76 C27 77.32 27 78.64 27 80 C27.66 80 28.32 80 29 80 C29 78.35 29 76.7 29 75 C29.55719727 75.15847412 30.11439453 75.31694824 30.68847656 75.48022461 C33.15877011 76.03570147 35.45553604 76.208468 37.984375 76.31640625 C38.82709961 76.35451416 39.66982422 76.39262207 40.53808594 76.43188477 C41.59801758 76.47498779 42.65794922 76.51809082 43.75 76.5625 C47.1325 76.706875 50.515 76.85125 54 77 C54 90.53 54 104.06 54 118 C46.41 118 38.82 118 31 118 C30.505 114.535 30.505 114.535 30 111 C29.81824219 112.03060547 29.81824219 112.03060547 29.6328125 113.08203125 C29.46523438 113.98308594 29.29765625 114.88414062 29.125 115.8125 C28.96257812 116.70582031 28.80015625 117.59914063 28.6328125 118.51953125 C28 121 28 121 26 124 C22.7421875 124.29296875 22.7421875 124.29296875 18.875 124.1875 C16.95300781 124.14689453 16.95300781 124.14689453 14.9921875 124.10546875 C14.00476563 124.07066406 13.01734375 124.03585937 12 124 C12.495 129.445 12.495 129.445 13 135 C13.825 135.20625 14.65 135.4125 15.5 135.625 C23.68466339 138.84040347 28.93979074 144.27716874 33 152 C36.02598958 159.04775209 38.11586427 165.71980076 38.14044189 173.42700195 C38.14615204 174.50366119 38.15186218 175.58032043 38.15774536 176.68960571 C38.15942215 178.4462001 38.15942215 178.4462001 38.16113281 180.23828125 C38.16858017 182.1000148 38.16858017 182.1000148 38.17617798 183.99935913 C38.18826194 187.39600038 38.1957376 190.79258028 38.20018864 194.18923569 C38.20312499 196.31248996 38.20723073 198.4357389 38.21169281 200.55899048 C38.22535268 207.20595238 38.23502815 213.85290202 38.2388947 220.49987698 C38.24337956 228.166703 38.26095345 235.8333511 38.2898953 243.50012302 C38.31151075 249.43231604 38.32159881 255.36445896 38.32293582 261.29669094 C38.32398344 264.83756297 38.32988269 268.3782674 38.34775543 271.9190979 C38.36729604 275.86669673 38.36294769 279.81407268 38.35644531 283.76171875 C38.3656601 284.93278168 38.37487488 286.1038446 38.3843689 287.31039429 C38.37879974 288.38705353 38.37323059 289.46371277 38.36749268 290.57299805 C38.36969252 291.97221748 38.36969252 291.97221748 38.3719368 293.39970398 C37.70665009 298.05087695 35.69716569 300.47712573 32 303.25 C27.43782981 305.91126594 24.21851453 306.09846254 19 306 C19.14622803 306.64960693 19.29245605 307.29921387 19.44311523 307.96850586 C20.11288127 310.95708106 20.77523095 313.94725491 21.4375 316.9375 C21.78264648 318.46987305 21.78264648 318.46987305 22.13476562 320.03320312 C25.7397716 336.38634616 25.7397716 336.38634616 23.6640625 340.9140625 C22.99117187 341.80867188 22.31828125 342.70328125 21.625 343.625 C8.71791891 362.63376448 3.09125243 387.80192343 -4.35249329 409.35794067 C-7.19603797 417.58578199 -10.09034082 425.79533994 -13 434 C-13.66 434 -14.32 434 -15 434 C-15.28609131 433.11143311 -15.57218262 432.22286621 -15.86694336 431.30737305 C-18.49176944 423.16040336 -21.12525462 415.01630708 -23.76985168 406.87573242 C-24.93297688 403.29434087 -26.09407373 399.712387 -27.24316406 396.12646484 C-31.16682317 383.89655052 -35.29222132 371.81720173 -40.1875 359.9375 C-40.77543335 358.50156494 -40.77543335 358.50156494 -41.37524414 357.03662109 C-45.55627829 346.8170063 -45.55627829 346.8170063 -52 338 C-51.93383789 336.12353516 -51.93383789 336.12353516 -51.66015625 333.6640625 C-51.55977051 332.75946289 -51.45938477 331.85486328 -51.35595703 330.92285156 C-50.76454741 326.06664036 -50.1134847 321.2200961 -49.4375 316.375 C-49.29892578 315.37082031 -49.16035156 314.36664062 -49.01757812 313.33203125 C-48.6800396 310.88778676 -48.34082223 308.44378839 -48 306 C-49.32064453 305.87044922 -49.32064453 305.87044922 -50.66796875 305.73828125 C-52.41013672 305.52751953 -52.41013672 305.52751953 -54.1875 305.3125 C-55.33605469 305.18488281 -56.48460937 305.05726563 -57.66796875 304.92578125 C-61.91772083 303.74501778 -63.32383288 302.51184013 -66 299 C-66.71530416 295.72725012 -66.64273493 292.52902339 -66.58349609 289.19042969 C-66.58583252 288.20573196 -66.58816895 287.22103424 -66.59057617 286.20649719 C-66.59219275 282.94441962 -66.55808787 279.68375308 -66.5234375 276.421875 C-66.51663875 274.13479114 -66.51192218 271.84770024 -66.50918579 269.56060791 C-66.49575459 263.52010147 -66.45149406 257.48018022 -66.40161133 251.43988037 C-66.36657383 246.58164168 -66.35318698 241.72346599 -66.34119225 236.86512375 C-66.32618611 230.98817223 -66.30114323 225.11127893 -66.2734375 219.234375 C-66.26852673 218.14591026 -66.26361595 217.05744553 -66.25855637 215.93599701 C-66.19598206 204.07971713 -66.00596815 192.23314944 -65.58447266 180.38378906 C-65.55152288 179.3505035 -65.51857311 178.31721794 -65.48462486 177.2526207 C-64.86441877 161.5834406 -59.16061878 149.49051527 -47.796875 138.55859375 C-46 137 -46 137 -43 135 C-42.20201782 132.58392583 -42.20201782 132.58392583 -41.8125 129.875 C-41.65394531 128.96492187 -41.49539063 128.05484375 -41.33203125 127.1171875 C-41.16767578 126.06917969 -41.16767578 126.06917969 -41 125 C-41.94101562 124.97421875 -42.88203125 124.9484375 -43.8515625 124.921875 C-56.53517558 124.34415349 -56.53517558 124.34415349 -61 120 C-64.25969942 115.7254373 -64.48129278 111.79478033 -64.50390625 106.59375 C-64.51389145 105.79142944 -64.52387665 104.98910889 -64.53416443 104.16247559 C-64.54930585 102.4714878 -64.55639145 100.78041097 -64.5559082 99.08935547 C-64.56248145 96.50728827 -64.61702674 93.92904554 -64.67382812 91.34765625 C-64.68262925 89.70053393 -64.6885841 88.05339342 -64.69140625 86.40625 C-64.7129628 85.63841187 -64.73451935 84.87057373 -64.75672913 84.07946777 C-64.70622491 80.1164987 -64.12092393 78.1579645 -61.69897461 74.99414062 C-57.06931652 71.73967918 -51.53477229 72.47097586 -46.125 72.6875 C-45.05507813 72.71005859 -43.98515625 72.73261719 -42.8828125 72.75585938 C-40.25375593 72.81454367 -37.62761418 72.8965882 -35 73 C-35.00666183 72.28082901 -35.01332367 71.56165802 -35.02018738 70.82069397 C-35.08054841 64.00997408 -35.12610064 57.1992947 -35.15543652 50.38837528 C-35.17102599 46.88762469 -35.19213941 43.38709698 -35.22631836 39.88647461 C-35.26545205 35.85268129 -35.27976462 31.81911844 -35.29296875 27.78515625 C-35.30845261 26.54105484 -35.32393646 25.29695343 -35.33988953 24.01515198 C-35.3413711 16.29617353 -35.08958974 8.94597922 -30.16796875 2.66015625 C-20.59625515 -5.06140364 -10.7618904 -6.60251062 0 0 Z " fill="#1A1C1E" transform="translate(545,286)"/>
<path d="M0 0 C1.33461021 -0.0146228 1.33461021 -0.0146228 2.69618225 -0.02954102 C22.59047985 -0.20264874 41.80794114 0.04802574 61.34765625 4.23828125 C62.68111084 4.51913574 62.68111084 4.51913574 64.04150391 4.80566406 C134.07181245 19.99485629 192.49312595 60.20005694 232.53515625 119.4765625 C241.83757576 134.10849319 250.20003481 150.01902467 256.34765625 166.23828125 C256.5811377 166.85251953 256.81461914 167.46675781 257.05517578 168.09960938 C260.82995551 178.21591859 263.54413304 188.5667388 266.09765625 199.05078125 C266.39148193 200.25420166 266.68530762 201.45762207 266.98803711 202.69750977 C271.07453838 219.93599631 272.5617315 236.88242412 272.53515625 254.55078125 C272.53424988 255.66820206 272.53424988 255.66820206 272.5333252 256.80819702 C272.49087724 276.18232356 270.96471349 294.94944558 266.84912109 313.91308594 C266.40392704 315.97736451 265.99246354 318.04885334 265.5859375 320.12109375 C257.06660971 359.26844388 234.26016614 398.85127811 206.71484375 427.75390625 C204.72843562 429.83865142 202.87346085 431.9624991 201.03515625 434.17578125 C192.0812932 444.4545596 181.4054906 453.31984382 170.34765625 461.23828125 C169.5280542 461.82657715 169.5280542 461.82657715 168.69189453 462.42675781 C136.83444757 485.01977471 98.9138069 501.635637 60.34765625 508.23828125 C59.22214355 508.43147949 58.09663086 508.62467773 56.93701172 508.82373047 C11.56820209 516.24683609 -35.44294731 513.75132036 -78.65234375 497.23828125 C-80.13531539 496.69113168 -81.61838252 496.14424081 -83.1015625 495.59765625 C-105.39462035 487.20378807 -127.05461175 475.87819327 -146.05371094 461.45166016 C-147.68358928 460.21456557 -149.32707827 458.99735816 -150.97265625 457.78125 C-158.64526558 452.0570068 -165.74198707 445.85617205 -172.65234375 439.23828125 C-173.15121094 438.76664551 -173.65007812 438.29500977 -174.1640625 437.80908203 C-181.61111037 430.74252279 -188.14709106 423.2498891 -194.30224609 415.03710938 C-195.63153752 413.26600282 -196.97874174 411.50973025 -198.328125 409.75390625 C-216.71952203 385.56366068 -230.86460813 358.36142456 -239.65234375 329.23828125 C-239.88888672 328.45727051 -240.12542969 327.67625977 -240.36914062 326.87158203 C-258.24668391 266.54106372 -250.37725644 196.30215961 -221.35302734 140.75146484 C-208.81957201 117.78510726 -193.79703743 97.05128777 -175.65234375 78.23828125 C-174.82476562 77.36945313 -173.9971875 76.500625 -173.14453125 75.60546875 C-167.68836091 69.99284908 -161.7771935 65.10118689 -155.65234375 60.23828125 C-154.64945312 59.40683594 -153.6465625 58.57539063 -152.61328125 57.71875 C-110.95516548 23.48824707 -54.23581906 0.49776761 0 0 Z M-133.65234375 66.23828125 C-134.55267334 66.91866455 -134.55267334 66.91866455 -135.47119141 67.61279297 C-151.49210066 79.78072948 -166.5574325 94.12712084 -178.65234375 110.23828125 C-179.56253599 111.3981301 -180.47409957 112.55690355 -181.38671875 113.71484375 C-211.27721 152.07185346 -229.70042602 199.32359213 -230.65234375 248.23828125 C-230.678125 249.23811035 -230.70390625 250.23793945 -230.73046875 251.26806641 C-231.1077975 267.51914389 -230.5297484 283.22729814 -227.65234375 299.23828125 C-227.37028076 300.82890381 -227.37028076 300.82890381 -227.08251953 302.45166016 C-222.85205482 325.45502237 -214.78279473 346.7058862 -203.65234375 367.23828125 C-203.33587891 367.83108887 -203.01941406 368.42389648 -202.69335938 369.03466797 C-172.08025449 426.0539044 -117.67786737 466.19847182 -56.65234375 485.23828125 C-17.34256039 496.95607615 28.46086962 499.22444458 68.12548828 487.86572266 C70.65923603 487.15030498 73.20399826 486.4829663 75.75 485.8125 C111.7078579 476.1047454 146.03350118 458.88191582 173.66748047 433.7434082 C175.43473848 432.16027167 177.24012445 430.63013203 179.0546875 429.1015625 C181.54020265 426.9814931 183.75801199 424.82221425 185.84765625 422.30078125 C188.01751657 419.74121209 190.22347175 417.35621576 192.66015625 415.05078125 C197.82390509 409.95618976 202.0473701 404.05820531 206.34765625 398.23828125 C206.7751416 397.66094238 207.20262695 397.08360352 207.64306641 396.48876953 C226.17623854 371.33007628 240.82019485 343.37484192 247.91015625 312.80078125 C248.11833984 311.92357422 248.32652344 311.04636719 248.54101562 310.14257812 C260.4284557 259.57437694 255.24770627 205.05139924 232.34765625 158.23828125 C231.94949707 157.4174707 231.55133789 156.59666016 231.14111328 155.75097656 C221.7994115 136.69056991 210.56089713 119.03314593 196.34765625 103.23828125 C195.24316099 101.95991925 194.13902039 100.68125077 193.03515625 99.40234375 C183.10743266 88.05503217 172.32853591 77.44572097 160.13867188 68.55078125 C158.27895129 67.18793258 156.44705134 65.79204913 154.61328125 64.39453125 C79.03355659 7.87591391 -28.21102303 4.2355911 -133.65234375 66.23828125 Z " fill="#232323" transform="translate(519.65234375,243.76171875)"/>
<path d="M0 0 C-0.48525047 4.73119204 -1.96070914 8.36273921 -4.0625 12.55859375 C-6.41077519 18.67389372 -6.19393383 25.40345036 -6.31640625 31.87109375 C-6.3475779 33.25458763 -6.3475779 33.25458763 -6.37937927 34.66603088 C-6.44435638 37.58978383 -6.50351684 40.51362061 -6.5625 43.4375 C-6.60573461 45.42904486 -6.64935042 47.42058148 -6.69335938 49.41210938 C-6.79998407 54.27465537 -6.90139503 59.13728504 -7 64 C-8.01320313 64.09796875 -9.02640625 64.1959375 -10.0703125 64.296875 C-11.42197055 64.44705923 -12.77352817 64.59814923 -14.125 64.75 C-14.79015625 64.811875 -15.4553125 64.87375 -16.140625 64.9375 C-21.99666282 65.62644563 -26.06910015 67.65651472 -29.828125 72.21875 C-30.29734375 72.9715625 -30.7665625 73.724375 -31.25 74.5 C-31.72953125 75.2528125 -32.2090625 76.005625 -32.703125 76.78125 C-33.13109375 77.5134375 -33.5590625 78.245625 -34 79 C-34.38285156 79.60972656 -34.76570312 80.21945312 -35.16015625 80.84765625 C-37.05164174 85.69513767 -36.18636032 91.4053388 -36.05322266 96.55224609 C-35.99705254 99.13555593 -35.98937058 101.71690761 -35.98046875 104.30078125 C-35.81107348 116.96904623 -34.37092449 126.66586544 -25.25 136.1875 C-23.50440328 137.80335642 -22.12850789 138.93574605 -20 140 C-21.2410689 143.7232067 -23.24140025 145.24140025 -26 148 C-28.27615408 151.54741035 -30.21795768 155.24341412 -32.125 159 C-32.64320313 160.010625 -33.16140625 161.02125 -33.6953125 162.0625 C-39.66126461 175.49482332 -36.722394 197.45097194 -37 208 C-89.14 208 -141.28 208 -195 208 C-193.78680834 189.80212516 -191.74082765 173.24145461 -186 156 C-185.74202637 155.2059375 -185.48405273 154.411875 -185.21826172 153.59375 C-178.84445403 134.06418964 -170.35592179 117.10772338 -159 100 C-158.59104492 99.37577148 -158.18208984 98.75154297 -157.76074219 98.10839844 C-152.11640307 89.51415706 -145.78422151 81.69824842 -139 74 C-138.19046875 73.07832031 -137.3809375 72.15664063 -136.546875 71.20703125 C-128.91246102 62.62480737 -121.00287019 55.1483024 -112 48 C-111.02160156 47.20464844 -110.04320312 46.40929687 -109.03515625 45.58984375 C-100.18605396 38.54850258 -90.77921472 32.66291892 -81 27 C-80.35804688 26.62601074 -79.71609375 26.25202148 -79.0546875 25.86669922 C-57.66697999 13.5403263 -31.92398385 3.68164135 -7.30859375 1.25390625 C-4.49316436 0.94425666 -2.9243636 0 0 0 Z " fill="#292929" transform="translate(501,281)"/>
<path d="M0 0 C44.94927139 7.90165342 85.57403032 24.36630452 120 55 C120.76699219 55.65742188 121.53398438 56.31484375 122.32421875 56.9921875 C129.4830777 63.12835232 135.94123091 69.78006264 142 77 C142.41878418 77.49435547 142.83756836 77.98871094 143.26904297 78.49804688 C175.87917203 117.22041686 189.77275659 159.18205269 196 209 C143.2 208.67 90.4 208.34 36 208 C35.67 195.13 35.34 182.26 35 169 C31.75911057 158.99478338 31.75911057 158.99478338 27.3125 150 C23.64870897 143.59817242 23.64870897 143.59817242 23 140 C23.92941406 139.89042969 24.85882812 139.78085937 25.81640625 139.66796875 C36.09047002 138.35023169 42.40232643 137.34737461 49.421875 129.42578125 C54.33161964 121.87887179 54.4751657 114.89575763 54.39111328 106.07348633 C54.37506434 104.0705295 54.39254365 102.06739682 54.41015625 100.06445312 C54.3810664 90.37268631 53.39361713 82.702299 47.6875 74.6875 C46.85798828 73.48673828 46.85798828 73.48673828 46.01171875 72.26171875 C42.68742265 68.52430624 39.5616958 66.24818421 34.56494141 65.45410156 C33.33952637 65.4331543 32.11411133 65.41220703 30.8515625 65.390625 C30.19417084 65.37408875 29.53677917 65.35755249 28.85946655 65.34051514 C26.78121324 65.29233397 24.70368974 65.27073386 22.625 65.25 C21.20699512 65.22181484 19.78902379 65.19188387 18.37109375 65.16015625 C14.91421959 65.08658708 11.45748327 65.03682902 8 65 C7.20914038 62.17701033 6.84612189 59.59285257 6.75048828 56.66552734 C6.72020538 55.8171933 6.68992249 54.96885925 6.65872192 54.09481812 C6.62954681 53.18438751 6.6003717 52.27395691 6.5703125 51.3359375 C6.49661445 49.38930313 6.42237833 47.44268908 6.34765625 45.49609375 C6.23461564 42.44203977 6.12542436 39.38802136 6.02587891 36.33349609 C5.92748417 33.3754144 5.81254042 30.41832514 5.6953125 27.4609375 C5.67018585 26.56265228 5.6450592 25.66436707 5.61917114 24.73886108 C5.32665274 17.80513628 4.14978603 11.10797977 0.90115356 4.90023804 C0 3 0 3 0 0 Z " fill="#282828" transform="translate(562,281)"/>
<path d="M0 0 C20.19221709 -0.02332734 40.38443145 -0.04097836 60.5766592 -0.05181217 C69.95158271 -0.05697548 79.32649787 -0.06401884 88.70141602 -0.07543945 C96.86954522 -0.08538523 105.03766837 -0.09185317 113.20580345 -0.09408849 C117.53351055 -0.09539578 121.86120034 -0.09848277 126.1889019 -0.10573006 C130.25749728 -0.1124886 134.32606812 -0.1146173 138.39466858 -0.11310768 C139.89231563 -0.11338408 141.38996345 -0.11539019 142.88760567 -0.11920547 C144.92351318 -0.12414006 146.9594337 -0.12239818 148.99534607 -0.12025452 C150.13744758 -0.12117631 151.27954908 -0.1220981 152.45625973 -0.12304783 C155 0 155 0 156 1 C156.09613511 2.36444972 156.12515369 3.73373052 156.12597656 5.1015625 C156.12978333 5.97337158 156.13359009 6.84518066 156.13751221 7.7434082 C156.13853943 8.6943335 156.13956665 9.64525879 156.140625 10.625 C156.15896774 12.63152163 156.17853938 14.63803234 156.19921875 16.64453125 C156.2280824 19.81317337 156.24999707 22.98112064 156.25048828 26.14990234 C156.25384366 29.20473108 156.28853596 32.25795246 156.328125 35.3125 C156.31752045 36.71459717 156.31752045 36.71459717 156.30670166 38.14501953 C156.43089613 44.93167593 158.24180072 49.39223756 162 55 C162.42933838 55.65209946 162.85867676 56.30419891 163.30102539 56.97605896 C164.42177354 58.65219201 165.57752325 60.29721687 166.75 61.9375 C170.04391451 66.59055399 171.97746549 69.35655549 172.23876953 75.15185547 C173.13389867 89.75946465 179.36923632 102.68215951 185 116 C186.30629628 119.11916347 187.60003112 122.24289883 188.875 125.375 C189.17494873 126.11161865 189.47489746 126.8482373 189.78393555 127.60717773 C193.49106069 136.93190028 196.68649106 146.4467833 199.9375 155.9375 C200.23098328 156.7921283 200.52446655 157.64675659 200.82684326 158.52728271 C201.66877708 160.9842078 202.50543584 163.44285372 203.33984375 165.90234375 C203.59363297 166.64424454 203.84742218 167.38614532 204.10890198 168.15052795 C205.31882587 171.74193054 206.37385268 175.25914765 207 179 C192.63978296 179.87129407 177.82427473 176.6336206 164 173 C162.74574219 172.67515625 161.49148438 172.3503125 160.19921875 172.015625 C127.33973543 163.12850292 96.29170832 146.16104165 71.2734375 123.0859375 C69.1610576 121.1477745 67.00001928 119.28976729 64.8125 117.4375 C61.60064255 114.6279229 58.77972764 111.65636129 56.02734375 108.3984375 C54.47911284 106.56681173 52.91099072 104.76707051 51.31640625 102.9765625 C32.87997958 82.13325972 19.30206961 58.79943641 9 33 C8.49270941 31.76150485 7.984953 30.52320031 7.4765625 29.28515625 C-0.15910402 10.19598995 -0.15910402 10.19598995 0 0 Z " fill="#222222" transform="translate(308,542)"/>
<path d="M0 0 C50.49 0 100.98 0 153 0 C154.16011147 4.64044588 153.30617327 7.5647418 152 12 C151.65497437 13.1909729 151.65497437 13.1909729 151.30297852 14.40600586 C150.55426044 16.94350747 149.78190451 19.47253861 149 22 C148.75749512 22.79035645 148.51499023 23.58071289 148.26513672 24.39501953 C139.03673674 53.90024805 123.81169023 81.10360735 103 104 C101.87391131 105.33241399 100.74880163 106.66565646 99.625 108 C91.55401824 117.13549974 82.85544826 125.80440283 73 133 C72.45601562 133.39864258 71.91203125 133.79728516 71.3515625 134.20800781 C46.90399886 151.96985672 20.55376198 164.28912632 -8.625 172 C-9.31967377 172.18404388 -10.01434753 172.36808777 -10.73007202 172.55770874 C-18.46074531 174.58160907 -26.22332905 176.31897069 -34.0859375 177.75 C-35.11927719 177.94166748 -35.11927719 177.94166748 -36.17349243 178.13720703 C-40.49313241 178.88708456 -44.62062659 179.11384236 -49 179 C-48.40006365 172.44684908 -46.83978008 166.51926588 -44.875 160.25 C-44.56296631 159.24211426 -44.25093262 158.23422852 -43.92944336 157.19580078 C-39.77036822 143.89469629 -35.10244298 130.78879544 -30.1875 117.75 C-29.86394531 116.89035645 -29.54039062 116.03071289 -29.20703125 115.14501953 C-27.3706112 110.34391558 -25.41226257 105.62629598 -23.3046875 100.9375 C-18.86670318 90.97600951 -15.24942975 82.61404236 -15.32714844 71.61425781 C-15.27460773 64.52126188 -12.19814211 60.41899019 -8 55 C2.1784116 41.41599534 2.1784116 41.41599534 0 0 Z " fill="#222222" transform="translate(599,542)"/>
<path d="M0 0 C4.23166185 -0.00271657 8.46330596 -0.00823668 12.69496065 -0.01645303 C132.53723864 -0.24785736 132.53723864 -0.24785736 143.77644074 7.24494404 C143.21394074 9.05744404 143.21394074 9.05744404 141.77644074 11.24494404 C125.34361558 19.48958289 102.41839412 17.12822173 84.27644074 17.86994404 C83.48838799 17.90264896 82.70033524 17.93535389 81.8884021 17.96904987 C39.77594225 19.70757986 -2.32547812 19.60138372 -44.46488464 19.2665047 C-47.21062839 19.2450451 -49.95637883 19.22494425 -52.70213592 19.20527118 C-63.97057937 19.12386764 -75.23864327 19.02206353 -86.50667846 18.89617389 C-88.85620057 18.8705425 -91.20573579 18.84712904 -93.55528533 18.82416767 C-109.07777046 18.66691771 -124.560676 18.30450454 -140.05559051 17.33088154 C-141.2933876 17.25479664 -142.53118469 17.17871174 -143.80649078 17.10032123 C-165.30514367 15.62877553 -165.30514367 15.62877553 -171.22355926 12.24494404 C-171.03605926 10.36994404 -171.03605926 10.36994404 -170.22355926 8.24494404 C-166.84611682 6.60129248 -163.68777118 5.88220988 -159.97746551 5.42853779 C-158.97393035 5.30414325 -157.9703952 5.17974872 -156.93644989 5.05158466 C-155.37700653 4.86886005 -155.37700653 4.86886005 -153.78605926 4.68244404 C-152.27882293 4.49391865 -152.27882293 4.49391865 -150.74113739 4.30158466 C-134.00517593 2.27201727 -117.1862328 1.72263139 -100.34855926 1.18244404 C-99.32134136 1.1493388 -99.32134136 1.1493388 -98.27337158 1.11556476 C-65.52409355 0.07759285 -32.76254415 0.02018262 0 0 Z " fill="#9B9C9B" transform="translate(547.2235592603683,813.7550559639931)"/>
<path d="M0 0 C52.47 0 104.94 0 159 0 C158.34 7.26 157.68 14.52 157 22 C105.19 22 53.38 22 0 22 C0 14.74 0 7.48 0 0 Z " fill="#252526" transform="translate(599,505)"/>
<path d="M0 0 C0 7.59 0 15.18 0 23 C-51.48 23 -102.96 23 -156 23 C-156.90833969 20.27498092 -157.18359985 18.37766029 -157.31640625 15.55078125 C-157.35830078 14.70322266 -157.40019531 13.85566406 -157.44335938 12.98242188 C-157.48267578 12.10134766 -157.52199219 11.22027344 -157.5625 10.3125 C-157.60568359 9.41982422 -157.64886719 8.52714844 -157.69335938 7.60742188 C-157.79935353 5.40509892 -157.90142051 3.20266527 -158 1 C-137.69466768 0.86953846 -117.38933489 0.73914982 -97.08400154 0.60884857 C-87.65642398 0.5483492 -78.22884658 0.48782575 -68.80126953 0.42724609 C-60.58661933 0.37446051 -52.37196884 0.32171962 -44.157318 0.26903296 C-39.80555314 0.24112028 -35.45378844 0.21318483 -31.10202408 0.18519592 C-27.00962992 0.15887589 -22.91723538 0.13261541 -18.82484055 0.10640144 C-17.31955196 0.09674862 -15.81426351 0.08707367 -14.30897522 0.07737541 C-12.26027463 0.06417931 -10.21157349 0.05106912 -8.16287231 0.03796387 C-7.01431826 0.03058952 -5.8657642 0.02321518 -4.68240547 0.01561737 C-3.12162142 0.00653025 -1.56081051 0 0 0 Z " fill="#272727" transform="translate(463,504)"/>
<path d="M0 0 C8.02542679 8.48614574 10.21094825 15.41292122 9.97265625 27.0390625 C9.734375 29.98046875 9.734375 29.98046875 8.734375 31.98046875 C-15.025625 31.98046875 -38.785625 31.98046875 -63.265625 31.98046875 C-65.71208006 12.40882829 -65.71208006 12.40882829 -60.265625 4.98046875 C-54.92608503 -1.17969724 -50.86428747 -5.04480929 -42.5390625 -5.65234375 C-41.42402344 -5.73613281 -40.30898438 -5.81992187 -39.16015625 -5.90625 C-37.41798828 -6.02419922 -37.41798828 -6.02419922 -35.640625 -6.14453125 C-34.50238281 -6.23089844 -33.36414063 -6.31726563 -32.19140625 -6.40625 C-9.06359361 -8.07909982 -9.06359361 -8.07909982 0 0 Z " fill="#F3F5F6" transform="translate(558.265625,438.01953125)"/>
<path d="M0 0 C24.42 0 48.84 0 74 0 C74 11.22 74 22.44 74 34 C49.58 34 25.16 34 0 34 C0 22.78 0 11.56 0 0 Z " fill="#EAEDED" transform="translate(494,486)"/>
<path d="M0 0 C0.85843909 3.9318489 1.71282476 7.86455447 2.56347656 11.7980957 C2.85338057 13.13590218 3.14438784 14.47347008 3.43652344 15.81079102 C3.85642359 17.73390513 4.2720188 19.6579576 4.6875 21.58203125 C4.93886719 22.73936768 5.19023438 23.8967041 5.44921875 25.08911133 C6 28 6 28 6 31 C5.278125 31.680625 4.55625 32.36125 3.8125 33.0625 C-2.20163924 38.77169697 -4.69565196 47.56512162 -7.5390625 55.14453125 C-9.35524538 59.97682844 -11.27293118 64.76852669 -13.1875 69.5625 C-13.53272705 70.43181152 -13.8779541 71.30112305 -14.23364258 72.19677734 C-14.56259521 73.02000488 -14.89154785 73.84323242 -15.23046875 74.69140625 C-15.52332764 75.42560791 -15.81618652 76.15980957 -16.11791992 76.91625977 C-16.99684804 78.99255412 -17.96969506 80.99510522 -19 83 C-19.66 83 -20.32 83 -21 83 C-21.20044922 82.37246826 -21.40089844 81.74493652 -21.60742188 81.09838867 C-28.88328817 56.1621004 -28.88328817 56.1621004 -41.5625 33.8125 C-44.9788104 29.44498161 -44.9788104 29.44498161 -45.1875 25.0625 C-44.83674617 23.69596308 -44.43447707 22.34226714 -44 21 C-43.49298558 19.00176669 -42.99351347 17.00161047 -42.5 15 C-42.2421875 14.05125 -41.984375 13.1025 -41.71875 12.125 C-41.14981031 9.65134916 -40.75540448 7.3155705 -40.45507812 4.8046875 C-40.30490234 3.54914062 -40.15472656 2.29359375 -40 1 C-34.62484606 0.85724976 -29.24968321 0.7148417 -23.87451172 0.57275391 C-22.04508213 0.52434598 -20.21565503 0.47584375 -18.38623047 0.42724609 C-15.76009761 0.35750056 -13.13395605 0.28809169 -10.5078125 0.21875 C-9.27649094 0.18593933 -9.27649094 0.18593933 -8.02029419 0.15246582 C-2.22774341 0 -2.22774341 0 0 0 Z " fill="#EEEFF1" transform="translate(551,592)"/>
<path d="M0 0 C24.42 0 48.84 0 74 0 C74 4.95 74 9.9 74 15 C49.58 15 25.16 15 0 15 C0 10.05 0 5.1 0 0 Z " fill="#E7ECED" transform="translate(494,562)"/>
<path d="M0 0 C3.10098265 0.25841522 4.72686764 0.77509121 7.14746094 2.76831055 C10.05067666 7.8328686 9.49115714 12.78686989 9.390625 18.51953125 C9.38496521 19.73323898 9.37930542 20.94694672 9.37347412 22.19743347 C9.35110442 26.06952544 9.30090382 29.94068824 9.25 33.8125 C9.22993591 36.43943975 9.21168499 39.06639402 9.1953125 41.69335938 C9.15123718 48.12926364 9.08220274 54.56447434 9 61 C4.38 61 -0.24 61 -5 61 C-6.70199977 57.59600046 -6.14145487 53.71308802 -6.1328125 49.96875 C-6.13376923 49.06306274 -6.13472595 48.15737549 -6.13571167 47.22424316 C-6.13639337 45.30086193 -6.1345398 43.3774784 -6.13037109 41.45410156 C-6.12507211 38.53965929 -6.13029057 35.62537464 -6.13671875 32.7109375 C-6.136057 30.83854133 -6.13477384 28.96614526 -6.1328125 27.09375 C-6.13483673 26.23293823 -6.13686096 25.37212646 -6.13894653 24.48522949 C-6.07345145 7.16355812 -6.07345145 7.16355812 0 0 Z " fill="#F4F5F7" transform="translate(529,297)"/>
<path d="M0 0 C24.75 0 49.5 0 75 0 C75.495 5.445 75.495 5.445 76 11 C50.92 11 25.84 11 0 11 C0 7.37 0 3.74 0 0 Z " fill="#F7F9FA" transform="translate(493,535)"/>
<path d="M0 0 C3.77128798 0.785685 5.34716909 1.82877282 8 4.625 C11.13732847 10.48134648 11.13732847 10.48134648 10.76171875 13.609375 C9.85570933 16.0068153 8.65212635 17.47796659 6.9375 19.375 C6.38964844 19.98859375 5.84179688 20.6021875 5.27734375 21.234375 C4.85582031 21.69328125 4.43429687 22.1521875 4 22.625 C-0.41244536 22.12072053 -2.74974317 20.61172249 -6 17.625 C-8.4697249 13.92041265 -8.78464199 10.92030819 -8 6.625 C-6.18858005 2.93219109 -4.13494997 0.86144791 0 0 Z " fill="#0F1113" transform="translate(530,603.375)"/>
<path d="M0 0 C0.99 0.495 0.99 0.495 2 1 C1.67 1.66 1.34 2.32 1 3 C-1.21118164 3.66674805 -1.21118164 3.66674805 -4.16015625 4.26171875 C-5.25166992 4.48956055 -6.34318359 4.71740234 -7.46777344 4.95214844 C-8.6540332 5.19481445 -9.84029297 5.43748047 -11.0625 5.6875 C-32.73848996 10.34832514 -52.96691412 16.42296567 -73 26 C-73.87720703 26.41733398 -74.75441406 26.83466797 -75.65820312 27.26464844 C-89.78045327 34.08246882 -102.68804415 42.46970838 -115.59326172 51.34716797 C-118.37764995 53.25935181 -121.18301079 55.13630663 -124 57 C-123.75 55.125 -123.75 55.125 -123 53 C-121.125 51.9375 -121.125 51.9375 -119 51 C-118.3503125 50.33097656 -118.3503125 50.33097656 -117.6875 49.6484375 C-115.60149342 47.61071811 -113.35338927 46.22325403 -110.875 44.6875 C-107.33183957 42.47302473 -103.82790154 40.22759313 -100.375 37.875 C-88.62600806 30 -88.62600806 30 -85 30 C-85 29.34 -85 28.68 -85 28 C-84.278125 27.896875 -83.55625 27.79375 -82.8125 27.6875 C-79.75234179 26.93946133 -77.67766631 25.62069276 -75 24 C-74.01 24 -73.02 24 -72 24 C-72 23.34 -72 22.68 -72 22 C-69.57528977 20.64216227 -67.38011537 19.82456095 -64.6875 19.0625 C-57.76459027 17.09872252 -57.76459027 17.09872252 -52 13 C-49.79296875 12.4375 -49.79296875 12.4375 -47.1875 12 C-43.54038762 11.33309945 -40.43120578 10.40767416 -37 9 C-34.73522055 8.47483375 -32.46582015 8.00549715 -30.18359375 7.5625 C-28.00112273 7.10035555 -28.00112273 7.10035555 -26.23828125 6.0078125 C-22.88146408 4.49636603 -19.3728363 4.26544702 -15.75 3.875 C-14.63238281 3.74544922 -14.63238281 3.74544922 -13.4921875 3.61328125 C-11.66222154 3.40213133 -9.83120121 3.20015455 -8 3 C-8 2.34 -8 1.68 -8 1 C-7.05125 1.020625 -6.1025 1.04125 -5.125 1.0625 C-2.09333717 1.22551826 -2.09333717 1.22551826 0 0 Z " fill="#E9EBEA" transform="translate(492,244)"/>
<path d="M0 0 C0.66 0.33 1.32 0.66 2 1 C2 5.29 2 9.58 2 14 C-7.9 14 -17.8 14 -28 14 C-25.75 7.25 -25.75 7.25 -22 5 C-21.34 5.33 -20.68 5.66 -20 6 C-20.33 6.33 -20.66 6.66 -21 7 C-18.13275314 6.42655063 -17.1385485 6.1385485 -15 4 C-9.53981871 4.32761088 -5.01462723 5.97655393 0 8 C0 5.36 0 2.72 0 0 Z " fill="#959797" transform="translate(566,492)"/>
<path d="M0 0 C8.25 0 16.5 0 25 0 C25 3.3 25 6.6 25 10 C21.20787122 9.6924494 17.41636628 9.37919588 13.625 9.0625 C12.54476562 8.97548828 11.46453125 8.88847656 10.3515625 8.79882812 C9.3203125 8.71181641 8.2890625 8.62480469 7.2265625 8.53515625 C6.27346191 8.456604 5.32036133 8.37805176 4.33837891 8.29711914 C2 8 2 8 0 7 C0 4.69 0 2.38 0 0 Z " fill="#F0F0F2" transform="translate(518,411)"/>
<path d="M0 0 C2.31 0 4.62 0 7 0 C7 8.91 7 17.82 7 27 C4.69 27 2.38 27 0 27 C0 18.09 0 9.18 0 0 Z " fill="#F9FAFA" transform="translate(544,371)"/>
<path d="M0 0 C1.98 0 3.96 0 6 0 C6 8.58 6 17.16 6 26 C3.69 26 1.38 26 -1 26 C-1.02886751 21.85418113 -1.04675327 17.70838784 -1.0625 13.5625 C-1.07087891 12.37849609 -1.07925781 11.19449219 -1.08789062 9.97460938 C-1.09111328 8.84990234 -1.09433594 7.72519531 -1.09765625 6.56640625 C-1.10289307 5.52427979 -1.10812988 4.48215332 -1.11352539 3.40844727 C-1 1 -1 1 0 0 Z " fill="#F2F3F3" transform="translate(513,371)"/>
<path d="M0 0 C1.98 0 3.96 0 6 0 C6 8.58 6 17.16 6 26 C3.69 26 1.38 26 -1 26 C-1.02886751 21.85418113 -1.04675327 17.70838784 -1.0625 13.5625 C-1.07087891 12.37849609 -1.07925781 11.19449219 -1.08789062 9.97460938 C-1.09111328 8.84990234 -1.09433594 7.72519531 -1.09765625 6.56640625 C-1.10289307 5.52427979 -1.10812988 4.48215332 -1.11352539 3.40844727 C-1 1 -1 1 0 0 Z " fill="#E8EAEB" transform="translate(529,371)"/>
<path d="M0 0 C1.98 0 3.96 0 6 0 C6 7.59 6 15.18 6 23 C3.69 23 1.38 23 -1 23 C-1.02887512 19.35418313 -1.04675585 15.70839537 -1.0625 12.0625 C-1.07087891 11.02158203 -1.07925781 9.98066406 -1.08789062 8.90820312 C-1.09272461 7.42416992 -1.09272461 7.42416992 -1.09765625 5.91015625 C-1.10289307 4.99371338 -1.10812988 4.07727051 -1.11352539 3.13305664 C-1 1 -1 1 0 0 Z " fill="#EAEBED" transform="translate(497,372)"/>
<path d="M0 0 C0 7.59 0 15.18 0 23 C-1.65 23 -3.3 23 -5 23 C-6.23402862 18.22907044 -6.11265112 13.57530554 -6.0625 8.6875 C-6.05798828 7.85154297 -6.05347656 7.01558594 -6.04882812 6.15429688 C-6.03710548 4.10283351 -6.01917203 2.05140727 -6 0 C-4 -1 -4 -1 0 0 Z " fill="#D6D7D9" transform="translate(567,372)"/>
<path d="M0 0 C2.32891212 3.49336818 2.23551143 4.86007865 2.1953125 8.98046875 C2.18886719 10.14384766 2.18242188 11.30722656 2.17578125 12.50585938 C2.15902344 13.72080078 2.14226563 14.93574219 2.125 16.1875 C2.11597656 17.41404297 2.10695313 18.64058594 2.09765625 19.90429688 C2.07406017 22.93639295 2.04113841 25.96809938 2 29 C2.66 29 3.32 29 4 29 C4 34.94 4 40.88 4 47 C11.26 47 18.52 47 26 47 C26 47.33 26 47.66 26 48 C18.08 48 10.16 48 2 48 C1.10466453 45.31399358 0.81777386 43.48345477 0.68359375 40.703125 C0.64161865 39.83703613 0.59964355 38.97094727 0.55639648 38.07861328 C0.51716064 37.1451709 0.4779248 36.21172852 0.4375 35.25 C0.3950415 34.2894873 0.35258301 33.32897461 0.30883789 32.33935547 C-0.12435265 21.5610169 -0.09711995 10.78479686 0 0 Z " fill="#181A1D" transform="translate(568,297)"/>
<path d="M0 0 C1.04808041 1.97522846 2.0520411 3.97481509 3 6 C-7.41303106 7.41193641 -17.47329223 8.30028643 -28 8 C-28 7.67 -28 7.34 -28 7 C-24.04 7 -20.08 7 -16 7 C-16 5.68 -16 4.36 -16 3 C-15.34 3 -14.68 3 -14 3 C-14 2.34 -14 1.68 -14 1 C-9.35846395 -0.76820421 -4.68450286 -2.34225143 0 0 Z " fill="#5B5D5D" transform="translate(542,425)"/>
<path d="M0 0 C0.99 0 1.98 0 3 0 C3.75374121 3.43370998 4.00957763 5.94147005 3.4375 9.4375 C2.91645255 13.68031491 3.61564946 16.00981315 5 20 C6.32 20.33 7.64 20.66 9 21 C8.67 24.96 8.34 28.92 8 33 C7.67 33 7.34 33 7 33 C6.67 30.36 6.34 27.72 6 25 C2.04 25.33 -1.92 25.66 -6 26 C-5.67 23.69 -5.34 21.38 -5 19 C-4.67 19 -4.34 19 -4 19 C-4 20.65 -4 22.3 -4 24 C-2.35 24 -0.7 24 1 24 C0.67 16.08 0.34 8.16 0 0 Z " fill="#3F4143" transform="translate(566,371)"/>
<path d="M0 0 C6.6 0 13.2 0 20 0 C20 1.32 20 2.64 20 4 C12.74 4 5.48 4 -2 4 C-1.34 2.68 -0.68 1.36 0 0 Z " fill="#747777" transform="translate(548,502)"/>
<path d="M0 0 C14.37255792 -0.12713885 28.65299359 0.12000837 43 1 C40.17612073 2.59241015 38.1394795 3.25513307 34.90234375 3.265625 C34.10924805 3.26949219 33.31615234 3.27335937 32.49902344 3.27734375 C31.6537207 3.26832031 30.80841797 3.25929688 29.9375 3.25 C29.06512695 3.24613281 28.19275391 3.24226563 27.29394531 3.23828125 C18.12806005 3.11979943 9.08592826 2.15115833 0 1 C0 0.67 0 0.34 0 0 Z " fill="#D9D7D3" transform="translate(501,486)"/>
<path d="M0 0 C1.65 0.33 3.3 0.66 5 1 C5.33 4.63 5.66 8.26 6 12 C3.36 12 0.72 12 -2 12 C-2.6875 10.25 -2.6875 10.25 -3 8 C-2.02727325 6.64664105 -1.0260734 5.31337396 0 4 C0 2.68 0 1.36 0 0 Z " fill="#282B2D" transform="translate(587,383)"/>
<path d="M0 0 C0 7.59 0 15.18 0 23 C-0.33 23 -0.66 23 -1 23 C-1.66 16.4 -2.32 9.8 -3 3 C-16.86 2.505 -16.86 2.505 -31 2 C-31 1.67 -31 1.34 -31 1 C-26.90659073 0.8571448 -22.81316608 0.71473966 -18.71972656 0.57275391 C-17.3268186 0.52437552 -15.93391492 0.47587355 -14.54101562 0.42724609 C-12.54037587 0.3574232 -10.53971941 0.28807969 -8.5390625 0.21875 C-6.73236084 0.1559082 -6.73236084 0.1559082 -4.88916016 0.09179688 C-3.25997501 0.04003301 -1.63000728 0 0 0 Z " fill="#151817" transform="translate(463,504)"/>
<path d="M0 0 C-0.33 3.96 -0.66 7.92 -1 12 C-1.33 12 -1.66 12 -2 12 C-2 8.7 -2 5.4 -2 2 C-17.84 2 -33.68 2 -50 2 C-50 1.67 -50 1.34 -50 1 C-43.20068967 0.85729375 -36.40137264 0.71491012 -29.60205078 0.57275391 C-27.28759609 0.52432619 -24.97314296 0.47582382 -22.65869141 0.42724609 C-19.33756915 0.35755231 -16.01644144 0.28812446 -12.6953125 0.21875 C-11.65569366 0.19687622 -10.61607483 0.17500244 -9.54495239 0.15246582 C-8.10368484 0.12243469 -8.10368484 0.12243469 -6.63330078 0.09179688 C-5.36089035 0.06514954 -5.36089035 0.06514954 -4.06277466 0.03796387 C-2.70868662 0.01304286 -1.35431734 0 0 0 Z " fill="#3D3C3F" transform="translate(570,533)"/>
<path d="M0 0 C0.66 0.33 1.32 0.66 2 1 C2.04241723 3.33294775 2.04092937 5.66702567 2 8 C1 9 1 9 -0.85766602 9.02172852 C-1.64842529 8.97459717 -2.43918457 8.92746582 -3.25390625 8.87890625 C-4.53491211 8.80639648 -4.53491211 8.80639648 -5.84179688 8.73242188 C-6.73962891 8.67634766 -7.63746094 8.62027344 -8.5625 8.5625 C-9.46419922 8.51029297 -10.36589844 8.45808594 -11.29492188 8.40429688 C-13.5302655 8.27419751 -15.7652089 8.13922064 -18 8 C-17.01 6.68 -16.02 5.36 -15 4 C-9.54520815 4.56820748 -5.08940744 5.94637945 0 8 C0 5.36 0 2.72 0 0 Z " fill="#AAACAC" transform="translate(566,492)"/>
<path d="M0 0 C0.66 0.66 1.32 1.32 2 2 C0.94941406 2.64066406 -0.10117187 3.28132813 -1.18359375 3.94140625 C-8.76754939 8.60192756 -16.1634464 13.26489114 -23 19 C-23.33 18.01 -23.66 17.02 -24 16 C-23.236875 15.566875 -22.47375 15.13375 -21.6875 14.6875 C-19.09498406 13.21101434 -19.09498406 13.21101434 -17.66796875 11.61328125 C-15.5174383 9.53326 -13.16109323 8.08418974 -10.625 6.5 C-9.68914062 5.9121875 -8.75328125 5.324375 -7.7890625 4.71875 C-5.20421397 3.12584614 -2.60770851 1.55514253 0 0 Z " fill="#E1E1E1" transform="translate(392,282)"/>
<path d="M0 0 C0.66 0.33 1.32 0.66 2 1 C2 2.32 2 3.64 2 5 C2.66 5 3.32 5 4 5 C4 3.35 4 1.7 4 0 C4.66 0.33 5.32 0.66 6 1 C6.05391993 2.79133978 6.09275571 4.58313899 6.125 6.375 C6.14820313 7.37273437 6.17140625 8.37046875 6.1953125 9.3984375 C6 12 6 12 4 14 C4 11.69 4 9.38 4 7 C1.69 7 -0.62 7 -3 7 C-2.690625 6.401875 -2.38125 5.80375 -2.0625 5.1875 C-0.89790296 2.91043228 -0.89790296 2.91043228 0 0 Z " fill="#333737" transform="translate(570,361)"/>
<path d="M0 0 C-5.52125021 2.00045297 -10.96068386 3.50969076 -16.73828125 4.5703125 C-19.00589148 4.9558917 -19.00589148 4.9558917 -21.16796875 5.6796875 C-22.07482422 5.83824219 -22.07482422 5.83824219 -23 6 C-23.66 5.34 -24.32 4.68 -25 4 C-20.31893432 2.55109872 -15.59098822 1.39874654 -10.8125 0.3125 C-9.02779297 -0.09548828 -9.02779297 -0.09548828 -7.20703125 -0.51171875 C-4.29675544 -0.95481799 -2.71378221 -1.00335868 0 0 Z " fill="#BBBCBD" transform="translate(581,717)"/>
<path d="M0 0 C4.62 0 9.24 0 14 0 C14 0.33 14 0.66 14 1 C10.37 1 6.74 1 3 1 C3.04125 2.175625 3.0825 3.35125 3.125 4.5625 C3.13983635 8.72409674 2.31170778 12.06487667 1 16 C0.67 16 0.34 16 0 16 C0 10.72 0 5.44 0 0 Z " fill="#090A10" transform="translate(508,592)"/>
<path d="M0 0 C0.66 0.66 1.32 1.32 2 2 C-8.25 12.25 -8.25 12.25 -12 15 C-12.66 14.67 -13.32 14.34 -14 14 C-9.38 9.38 -4.76 4.76 0 0 Z " fill="#CECECB" transform="translate(696,652)"/>
<path d="M0 0 C1.32 0.33 2.64 0.66 4 1 C3.67 1.33 3.34 1.66 3 2 C3.78375 2.20625 4.5675 2.4125 5.375 2.625 C8 4 8 4 9.3125 7.125 C9.6528125 8.548125 9.6528125 8.548125 10 10 C9.01 9.34 8.02 8.68 7 8 C7 7.01 7 6.02 7 5 C2.48382401 4.92345464 -1.59085217 4.89771304 -6 6 C-5.34 5.01 -4.68 4.02 -4 3 C-3.01 3 -2.02 3 -1 3 C-0.67 2.01 -0.34 1.02 0 0 Z " fill="#36393B" transform="translate(535,420)"/>
<path d="M0 0 C-0.54339792 4.56454251 -1.79463821 7.9728176 -4 12 C-4.82638376 9.10765685 -5 7.11257569 -5 4 C-7.97 3.67 -10.94 3.34 -14 3 C-14 2.67 -14 2.34 -14 2 C-13.06027344 1.90912109 -13.06027344 1.90912109 -12.1015625 1.81640625 C-10.87566406 1.69072266 -10.87566406 1.69072266 -9.625 1.5625 C-8.81289063 1.48128906 -8.00078125 1.40007812 -7.1640625 1.31640625 C-4.39098241 0.91095591 -2.91201214 0 0 0 Z " fill="#4B5A5D" transform="translate(501,281)"/>
<path d="M0 0 C0.33 0.66 0.66 1.32 1 2 C0.3190918 3.67993164 0.3190918 3.67993164 -0.80078125 5.66015625 C-1.20103516 6.37107422 -1.60128906 7.08199219 -2.01367188 7.81445312 C-2.44228516 8.55630859 -2.87089844 9.29816406 -3.3125 10.0625 C-3.72951172 10.80822266 -4.14652344 11.55394531 -4.57617188 12.32226562 C-7.73372024 17.86686012 -7.73372024 17.86686012 -10 19 C-9.44822378 14.41336016 -7.4503798 11.06265388 -5 7.25 C-4.63132812 6.66089844 -4.26265625 6.07179688 -3.8828125 5.46484375 C-1.19041149 1.19041149 -1.19041149 1.19041149 0 0 Z " fill="#DADADA" transform="translate(306,369)"/>
<path d="M0 0 C0.66 0.33 1.32 0.66 2 1 C1.67 1.33 1.34 1.66 1 2 C1.99 2.66 2.98 3.32 4 4 C3.01 4.33 2.02 4.66 1 5 C-0.68538601 6.99665314 -0.68538601 6.99665314 -2 9 C-3.32 8.67 -4.64 8.34 -6 8 C-4.73058503 4.08597051 -3.48832306 2.20927127 0 0 Z " fill="#B1B4B3" transform="translate(544,497)"/>
<path d="M0 0 C2.31 0 4.62 0 7 0 C7 1.65 7 3.3 7 5 C4.69 5 2.38 5 0 5 C0 3.35 0 1.7 0 0 Z " fill="#B2B4B6" transform="translate(585,377)"/>
<path d="M0 0 C0.66 0.33 1.32 0.66 2 1 C0.61240749 2.61130023 -0.78545623 4.21375841 -2.1875 5.8125 C-2.96480469 6.70582031 -3.74210938 7.59914063 -4.54296875 8.51953125 C-6.89417119 10.8931617 -9.06791184 12.43240047 -12 14 C-12 13.01 -12 12.02 -12 11 C-10.58207725 9.74695199 -9.15467098 8.5015792 -7.6640625 7.3359375 C-5.25866375 5.40484273 -3.147806 3.20917189 -1 1 C-0.67 0.67 -0.34 0.34 0 0 Z " fill="#CDD0CE" transform="translate(707,661)"/>
<path d="M0 0 C0.99 0 1.98 0 3 0 C1.6744419 3.62276315 0.05653045 6.63505348 -2.125 9.8125 C-2.93324219 10.99779297 -2.93324219 10.99779297 -3.7578125 12.20703125 C-4.16773438 12.79871094 -4.57765625 13.39039063 -5 14 C-5.99 13.67 -6.98 13.34 -8 13 C-7.34 13 -6.68 13 -6 13 C-5.7525 12.34 -5.505 11.68 -5.25 11 C-3.68182955 7.23639093 -1.85494954 3.6288576 0 0 Z " fill="#CFCFCE" transform="translate(740,615)"/>
<path d="M0 0 C0.33 0 0.66 0 1 0 C1.66 6.6 2.32 13.2 3 20 C-0.53470459 16.46529541 -0.46506071 15.39002916 -0.75 10.5625 C-0.82734375 9.42941406 -0.9046875 8.29632812 -0.984375 7.12890625 C-0.99762469 4.47565486 -0.81082251 2.50003608 0 0 Z " fill="#2D2E30" transform="translate(289,520)"/>
<path d="M0 0 C0.66 0 1.32 0 2 0 C2.8394882 2.10171867 3.67139656 4.20646625 4.5 6.3125 C5.19609375 8.07013672 5.19609375 8.07013672 5.90625 9.86328125 C7 13 7 13 7 16 C6.34 16 5.68 16 5 16 C3.39644899 12.49223216 2.77963136 9.85645121 3 6 C2.34 6 1.68 6 1 6 C0.67 4.02 0.34 2.04 0 0 Z " fill="#2F2F2F" transform="translate(739,417)"/>
<path d="M0 0 C0.33 0 0.66 0 1 0 C1.33564902 3.43727803 1.66812049 6.87485613 2 10.3125 C2.14308594 11.77719727 2.14308594 11.77719727 2.2890625 13.27148438 C2.37929688 14.20927734 2.46953125 15.14707031 2.5625 16.11328125 C2.64628906 16.97735596 2.73007812 17.84143066 2.81640625 18.73168945 C3 21 3 21 3 24 C0.89592904 22.30363829 0.06759322 21.45018536 -0.34057617 18.73168945 C-0.32486572 17.86761475 -0.30915527 17.00354004 -0.29296875 16.11328125 C-0.28330078 15.17548828 -0.27363281 14.23769531 -0.26367188 13.27148438 C-0.23853516 12.29501953 -0.21339844 11.31855469 -0.1875 10.3125 C-0.17396484 9.32443359 -0.16042969 8.33636719 -0.14648438 7.31835938 C-0.11112203 4.87835769 -0.06177033 2.43945281 0 0 Z " fill="#222228" transform="translate(481,380)"/>
<path d="M0 0 C0.33 0 0.66 0 1 0 C1.66 6.6 2.32 13.2 3 20 C2.34 20.33 1.68 20.66 1 21 C-1.81568891 14.04359209 -0.75276679 7.33438993 0 0 Z " fill="#39393B" transform="translate(479,612)"/>
<path d="M0 0 C0.125 3.375 0.125 3.375 0 7 C-0.66 7.66 -1.32 8.32 -2 9 C-4.125 8.625 -4.125 8.625 -6 8 C-5.34 8 -4.68 8 -4 8 C-4.061875 7.05125 -4.12375 6.1025 -4.1875 5.125 C-4.125625 4.09375 -4.06375 3.0625 -4 2 C-1 0 -1 0 0 0 Z " fill="#D0D3D2" transform="translate(540,497)"/>
<path d="M0 0 C4.50066475 1.06795435 8.7494534 2.14038586 13 4 C13 4.66 13 5.32 13 6 C8.16371695 5.00956295 3.52381127 4.04301154 -1 2 C-0.67 1.34 -0.34 0.68 0 0 Z " fill="#BFC1C1" transform="translate(444,720)"/>
<path d="M0 0 C0.99 0.33 1.98 0.66 3 1 C1.68 3.97 0.36 6.94 -1 10 C-3 9 -3 9 -3.875 7.25 C-4 5 -4 5 -2.0625 2.25 C-1.381875 1.5075 -0.70125 0.765 0 0 Z " fill="#12322E" transform="translate(496,441)"/>
<path d="M0 0 C1.41805831 0.28482368 2.83440379 0.57818144 4.25 0.875 C5.03890625 1.03742187 5.8278125 1.19984375 6.640625 1.3671875 C8.96831144 1.99150075 10.89031952 2.84838542 13 4 C10 6 10 6 8 6 C7.34 5.34 6.68 4.68 6 4 C4.01612292 2.96838392 2.01723344 1.96476382 0 1 C0 0.67 0 0.34 0 0 Z " fill="#151717" transform="translate(442,722)"/>
<path d="M0 0 C0.33 1.32 0.66 2.64 1 4 C3.31 4.33 5.62 4.66 8 5 C8.33 5.99 8.66 6.98 9 8 C6.03 7.67 3.06 7.34 0 7 C0 4.69 0 2.38 0 0 Z " fill="#0E1012" transform="translate(555,417)"/>
<path d="M0 0 C1 3 1 3 0.00390625 5.48046875 C-0.47175781 6.37378906 -0.94742187 7.26710938 -1.4375 8.1875 C-1.91058594 9.08855469 -2.38367188 9.98960937 -2.87109375 10.91796875 C-3.24363281 11.60503906 -3.61617188 12.29210937 -4 13 C-4.66 12.67 -5.32 12.34 -6 12 C-5.67 10.68 -5.34 9.36 -5 8 C-4.34 8 -3.68 8 -3 8 C-2.87625 6.865625 -2.7525 5.73125 -2.625 4.5625 C-2.41875 3.386875 -2.2125 2.21125 -2 1 C-1.34 0.67 -0.68 0.34 0 0 Z " fill="#D9D9D9" transform="translate(291,397)"/>
<path d="M0 0 C0.66 0 1.32 0 2 0 C3.98 3.96 5.96 7.92 8 12 C7.01 12 6.02 12 5 12 C5 10.68 5 9.36 5 8 C4.34 8 3.68 8 3 8 C0.95830515 5.09451118 0 3.59857954 0 0 Z " fill="#303030" transform="translate(728,395)"/>
<path d="M0 0 C1.32 0.66 2.64 1.32 4 2 C0.83433427 4.11044382 -1.51197415 4.75552077 -5.1875 5.625 C-6.27417969 5.88539063 -7.36085938 6.14578125 -8.48046875 6.4140625 C-9.31191406 6.60742188 -10.14335938 6.80078125 -11 7 C-11 6.34 -11 5.68 -11 5 C-10.37351562 4.80664062 -9.74703125 4.61328125 -9.1015625 4.4140625 C-8.28429687 4.15367187 -7.46703125 3.89328125 -6.625 3.625 C-5.81289063 3.36976563 -5.00078125 3.11453125 -4.1640625 2.8515625 C-1.83540815 2.10145717 -1.83540815 2.10145717 0 0 Z " fill="#D1D4D3" transform="translate(600,724)"/>
<path d="M0 0 C0.66 0.33 1.32 0.66 2 1 C2 1.66 2 2.32 2 3 C3.98 3 5.96 3 8 3 C4.36576791 5.32590854 1.22911669 5.16265833 -3 5 C-1.125 1.125 -1.125 1.125 0 0 Z " fill="#17191D" transform="translate(553,716)"/>
<path d="M0 0 C0.99 0.33 1.98 0.66 3 1 C4.1875 4.0625 4.1875 4.0625 5 7 C2.36 7 -0.28 7 -3 7 C-2.01 6.34 -1.02 5.68 0 5 C0.25030977 2.41619823 0.25030977 2.41619823 0 0 Z " fill="#191A1A" transform="translate(510,713)"/>
<path d="M0 0 C0.66 0 1.32 0 2 0 C1.49202991 4.3177458 0.80317221 8.03302114 -1 12 C-1.33 12 -1.66 12 -2 12 C-2.05422947 10.5629191 -2.09289723 9.12524538 -2.125 7.6875 C-2.14820313 6.88699219 -2.17140625 6.08648438 -2.1953125 5.26171875 C-2 3 -2 3 0 0 Z " fill="#0C0E0E" transform="translate(542,682)"/>
<path d="M0 0 C0 3 0 3 -1.53125 4.82421875 C-2.1809375 5.43910156 -2.830625 6.05398438 -3.5 6.6875 C-4.1496875 7.31011719 -4.799375 7.93273437 -5.46875 8.57421875 C-5.9740625 9.04472656 -6.479375 9.51523437 -7 10 C-7.33 9.01 -7.66 8.02 -8 7 C-5.36 4.69 -2.72 2.38 0 0 Z " fill="#1B1D1C" transform="translate(717,654)"/>
<path d="M0 0 C1.98 0.495 1.98 0.495 4 1 C3.43628586 4.26954202 2.50037734 5.82575883 0 8 C-0.79953138 4.71303767 -1.09658936 3.28976808 0 0 Z " fill="#1D1F21" transform="translate(537,614)"/>
<path d="M0 0 C0.66 0.33 1.32 0.66 2 1 C-1.63 4.3 -5.26 7.6 -9 11 C-9 8 -9 8 -6.625 5.3125 C-4 3 -4 3 -2 3 C-2 2.34 -2 1.68 -2 1 C-1.34 0.67 -0.68 0.34 0 0 Z " fill="#E1E2E1" transform="translate(359,306)"/>
<path d="M0 0 C0.66 0 1.32 0 2 0 C1.55123384 1.64846769 1.09069512 3.29373455 0.625 4.9375 C0.36976563 5.85402344 0.11453125 6.77054688 -0.1484375 7.71484375 C-1 10 -1 10 -3 11 C-3.3227506 6.37390802 -2.84450614 3.71973879 0 0 Z " fill="#131213" transform="translate(544,646)"/>
<path d="M0 0 C1.32 0 2.64 0 4 0 C2.90931332 3.77545388 2.0916909 6.47043472 -1 9 C-1.07427838 5.65747276 -1.06546953 3.1964086 0 0 Z " fill="#CECECE" transform="translate(745,604)"/>
<path d="M0 0 C0.33 0.66 0.66 1.32 1 2 C-0.58294782 2.05437607 -2.16644256 2.09296271 -3.75 2.125 C-4.63171875 2.14820313 -5.5134375 2.17140625 -6.421875 2.1953125 C-9.1135858 1.99139502 -10.69904974 1.36551721 -13 0 C-8.37627754 -1.30042194 -4.66289322 -0.85486376 0 0 Z " fill="#E7E6E6" transform="translate(578,245)"/>
<path d="M0 0 C0.66 0.33 1.32 0.66 2 1 C-0.64 3.97 -3.28 6.94 -6 10 C-6.66 9.34 -7.32 8.68 -8 8 C-5.36 5.36 -2.72 2.72 0 0 Z M-10 10 C-9.67 10.66 -9.34 11.32 -9 12 C-9.66 11.67 -10.32 11.34 -11 11 C-10.67 10.67 -10.34 10.34 -10 10 Z " fill="#F3F3F4" transform="translate(373,320)"/>
<path d="M0 0 C2.97 0.99 5.94 1.98 9 3 C9 3.66 9 4.32 9 5 C5.0507432 4.44894091 1.65079826 3.61064629 -2 2 C-1.34 1.34 -0.68 0.68 0 0 Z " fill="#C2C5C4" transform="translate(434,716)"/>
<path d="M0 0 C0.33 0.99 0.66 1.98 1 3 C-3.455 3.495 -3.455 3.495 -8 4 C-7.67 3.01 -7.34 2.02 -7 1 C-4.53721199 -0.231394 -2.7204945 -0.07159196 0 0 Z " fill="#545A59" transform="translate(542,426)"/>
<path d="M0 0 C4.26086957 6.39130435 4.26086957 6.39130435 3.625 10.3125 C3.41875 10.869375 3.2125 11.42625 3 12 C0.97649676 8.96474514 0.67875982 7.80573798 0.375 4.3125 C0.30023438 3.50425781 0.22546875 2.69601562 0.1484375 1.86328125 C0.09945313 1.24839844 0.05046875 0.63351562 0 0 Z " fill="#2E3030" transform="translate(506,696)"/>
<path d="M0 0 C0.66 0.66 1.32 1.32 2 2 C0.71186658 2.83878455 -0.58063256 3.67086783 -1.875 4.5 C-2.59429688 4.9640625 -3.31359375 5.428125 -4.0546875 5.90625 C-6 7 -6 7 -8 7 C-6.86500606 3.70851757 -6.00716624 3.0040131 -2.875 1.25 C-1.92625 0.8375 -0.9775 0.425 0 0 Z " fill="#D0D2D2" transform="translate(661,698)"/>
<path d="M0 0 C1.39195915 4.17587745 -0.17676781 6.13474776 -2 10 C-2.99 10 -3.98 10 -5 10 C-4.34 8.35 -3.68 6.7 -3 5 C-2.34 5 -1.68 5 -1 5 C-0.67 3.35 -0.34 1.7 0 0 Z " fill="#0F1113" transform="translate(549,665)"/>
<path d="M0 0 C0.33 0 0.66 0 1 0 C1.36590746 1.72672034 1.71722195 3.45653655 2.0625 5.1875 C2.25972656 6.15042969 2.45695312 7.11335937 2.66015625 8.10546875 C3.00423947 11.03610862 2.74164697 13.16307068 2 16 C-0.42130331 12.36804504 -0.21022785 10.61650652 -0.125 6.3125 C-0.09792969 4.54326172 -0.09792969 4.54326172 -0.0703125 2.73828125 C-0.04710937 1.83464844 -0.02390625 0.93101562 0 0 Z " fill="#F6F7F9" transform="translate(480,612)"/>
<path d="M0 0 C0.66 0.99 1.32 1.98 2 3 C1.125 6.6875 1.125 6.6875 0 10 C-2 8 -2 8 -2.25 5.5625 C-2 3 -2 3 0 0 Z " fill="#D2D4D3" transform="translate(758,577)"/>
<path d="M0 0 C0.66 0.33 1.32 0.66 2 1 C2 2.32 2 3.64 2 5 C2.66 5.33 3.32 5.66 4 6 C1.69 6.33 -0.62 6.66 -3 7 C-2.690625 6.401875 -2.38125 5.80375 -2.0625 5.1875 C-0.89790296 2.91043228 -0.89790296 2.91043228 0 0 Z " fill="#5F6764" transform="translate(570,361)"/>
<path d="M0 0 C-0.33 0.99 -0.66 1.98 -1 3 C-1.66 3 -2.32 3 -3 3 C-3.33 4.65 -3.66 6.3 -4 8 C-4.99 7.67 -5.98 7.34 -7 7 C-3.86206897 0 -3.86206897 0 0 0 Z " fill="#32282E" transform="translate(519,287)"/>
<path d="M0 0 C0 0.33 0 0.66 0 1 C-3.63 1.33 -7.26 1.66 -11 2 C-6.77679366 -2.22320634 -5.21444273 -2.39582504 0 0 Z " fill="#C8CACA" transform="translate(574,734)"/>
<path d="M0 0 C0.33 1.32 0.66 2.64 1 4 C-2.3 4.33 -5.6 4.66 -9 5 C-6.3534665 2.3534665 -3.43778736 1.40058003 0 0 Z " fill="#C1C3C2" transform="translate(587,728)"/>
<path d="M0 0 C1.21386936 3.64160808 0.6674695 4.33165469 -0.9375 7.6875 C-1.31777344 8.49574219 -1.69804688 9.30398438 -2.08984375 10.13671875 C-2.39019531 10.75160156 -2.69054687 11.36648438 -3 12 C-4.12668965 8.61993106 -3.89636912 8.0359269 -2.625 4.875 C-2.34914063 4.17117188 -2.07328125 3.46734375 -1.7890625 2.7421875 C-1 1 -1 1 0 0 Z " fill="#0C0E0F" transform="translate(538,697)"/>
<path d="M0 0 C3.2542015 2.83430453 4.5206753 4.68607774 5 9 C4.34 9 3.68 9 3 9 C0.56839395 5.63316085 0 4.26649636 0 0 Z " fill="#141415" transform="translate(320,619)"/>
<path d="M0 0 C0.66 0 1.32 0 2 0 C2 3.3 2 6.6 2 10 C1.01 9.67 0.02 9.34 -1 9 C-0.67 6.03 -0.34 3.06 0 0 Z " fill="#080A0F" transform="translate(505,612)"/>
<path d="M0 0 C2.5625 2.125 2.5625 2.125 5 5 C4.8125 8.3125 4.8125 8.3125 4 11 C3.34 10.67 2.68 10.34 2 10 C1.3671875 7.71484375 1.3671875 7.71484375 0.875 4.9375 C0.70742188 4.01839844 0.53984375 3.09929687 0.3671875 2.15234375 C0.24601563 1.44207031 0.12484375 0.73179687 0 0 Z " fill="#DDDDDF" transform="translate(779,418)"/>
<path d="M0 0 C2.31 0 4.62 0 7 0 C7 0.99 7 1.98 7 3 C4.69 3 2.38 3 0 3 C0 2.01 0 1.02 0 0 Z " fill="#626769" transform="translate(586,392)"/>
<path d="M0 0 C-1.39121745 2.7824349 -3.30164212 3.55210065 -6 5 C-6.66 5 -7.32 5 -8 5 C-7.625 3.0625 -7.625 3.0625 -7 1 C-4.53721199 -0.231394 -2.7204945 -0.07159196 0 0 Z " fill="#818180" transform="translate(384,821)"/>
<path d="M0 0 C0.99 0.66 1.98 1.32 3 2 C-1.95 3.485 -1.95 3.485 -7 5 C-7 4.34 -7 3.68 -7 3 C-3.6875 1.375 -3.6875 1.375 0 0 Z " fill="#CBCFCD" transform="translate(613,721)"/>
<path d="M0 0 C-1.24976756 3.65316671 -1.67098753 4.78065836 -5 7 C-5 5.02 -5 3.04 -5 1 C-3 0 -3 0 0 0 Z " fill="#121418" transform="translate(569,624)"/>
<path d="M0 0 C0.66 0.33 1.32 0.66 2 1 C-0.85276137 3.93200474 -3.65079784 6.64315404 -7 9 C-5.44499019 5.18315774 -2.96404505 2.80804268 0 0 Z " fill="#151416" transform="translate(612,410)"/>
<path d="M0 0 C0.66 0.33 1.32 0.66 2 1 C0.25 6.75 0.25 6.75 -2 9 C-2.66 8.34 -3.32 7.68 -4 7 C-3.34 7 -2.68 7 -2 7 C-1.855625 6.21625 -1.71125 5.4325 -1.5625 4.625 C-1 2 -1 2 0 0 Z " fill="#D2D2D2" transform="translate(754,589)"/>
<path d="M0 0 C0.66 0.66 1.32 1.32 2 2 C1.9765625 4.6015625 1.9765625 4.6015625 1.625 7.625 C1.51414062 8.62789063 1.40328125 9.63078125 1.2890625 10.6640625 C1.19367187 11.43492187 1.09828125 12.20578125 1 13 C0.67 13 0.34 13 0 13 C-0.144375 11.7625 -0.28875 10.525 -0.4375 9.25 C-0.78688502 6.43495501 -1.20379366 3.7298503 -2 1 C-1.34 0.67 -0.68 0.34 0 0 Z " fill="#4D4A52" transform="translate(573,391)"/>
<path d="M0 0 C2.475 0.495 2.475 0.495 5 1 C5 1.99 5 2.98 5 4 C3.35 4 1.7 4 0 4 C0 2.68 0 1.36 0 0 Z " fill="#7A8080" transform="translate(587,383)"/>
<path d="M0 0 C0.99 0 1.98 0 3 0 C4.85776765 3.13498292 5.20140476 5.37471432 5 9 C2.67527795 6.14693203 1.2491742 3.45925163 0 0 Z " fill="#D2D2D3" transform="translate(307,592)"/>
<path d="M0 0 C3.00617269 3.00617269 2.59585316 5.82381598 3 10 C2.01 9.34 1.02 8.68 0 8 C-0.40843923 5.28796348 -0.13336867 2.7562858 0 0 Z " fill="#161618" transform="translate(296,564)"/>
<path d="M0 0 C1.98 0.99 1.98 0.99 4 2 C4 3.98 4 5.96 4 8 C1.10067643 5.60490662 0.49831724 3.68754757 0 0 Z " fill="#171519" transform="translate(753,403)"/>
<path d="M0 0 C0.66 0 1.32 0 2 0 C2 0.66 2 1.32 2 2 C2.66 2 3.32 2 4 2 C4.33 3.98 4.66 5.96 5 8 C4.34 8 3.68 8 3 8 C0 2.25 0 2.25 0 0 Z " fill="#DBDBDD" transform="translate(764,384)"/>
<path d="M0 0 C3.99455527 0.61454696 6.74466336 2.70646737 10 5 C9.01 5.33 8.02 5.66 7 6 C5.17578125 5.0390625 5.17578125 5.0390625 3.3125 3.625 C2.68988281 3.16351563 2.06726563 2.70203125 1.42578125 2.2265625 C0.95527344 1.82179688 0.48476563 1.41703125 0 1 C0 0.67 0 0.34 0 0 Z " fill="#DEE0DF" transform="translate(673,284)"/>
<path d="M0 0 C0.99 0.33 1.98 0.66 3 1 C0.36 2.98 -2.28 4.96 -5 7 C-5 6.01 -5 5.02 -5 4 C-2.6875 1.75 -2.6875 1.75 0 0 Z " fill="#CDCDCD" transform="translate(715,683)"/>
<path d="M0 0 C0.33 0 0.66 0 1 0 C1 2.64 1 5.28 1 8 C0.34 8 -0.32 8 -1 8 C-1.33 8.66 -1.66 9.32 -2 10 C-1.54177532 6.53058454 -1.10868317 3.32604951 0 0 Z " fill="#D6D5D8" transform="translate(783,571)"/>
<path d="M0 0 C0.99 0.33 1.98 0.66 3 1 C1.125 5.75 1.125 5.75 0 8 C-0.66 8 -1.32 8 -2 8 C-1.34 5.36 -0.68 2.72 0 0 Z " fill="#2D302F" transform="translate(762,573)"/>
</svg>
